<mxfile host="app.diagrams.net" modified="2023-12-07T14:27:33.652Z" agent="Mozilla/5.0 (Windows NT 10.0; Win64; x64; rv:120.0) Gecko/20100101 Firefox/120.0" etag="CgK500Xh4l72V7jIJVIH" version="22.1.7" type="device">
  <diagram name="Strona-1" id="7mi1ZOC7OarTVQJ2QVS8">
    <mxGraphModel dx="1050" dy="530" grid="1" gridSize="10" guides="1" tooltips="1" connect="1" arrows="1" fold="1" page="1" pageScale="1" pageWidth="827" pageHeight="1169" math="0" shadow="0">
      <root>
        <mxCell id="0" />
        <mxCell id="1" parent="0" />
        <mxCell id="j6KKOtEj2I2lnPUpxFF_-1" value="Book" style="swimlane;fontStyle=1;align=center;verticalAlign=top;childLayout=stackLayout;horizontal=1;startSize=26;horizontalStack=0;resizeParent=1;resizeParentMax=0;resizeLast=0;collapsible=1;marginBottom=0;whiteSpace=wrap;html=1;" parent="1" vertex="1">
          <mxGeometry x="130" y="215" width="160" height="170" as="geometry" />
        </mxCell>
        <mxCell id="j6KKOtEj2I2lnPUpxFF_-2" value="&lt;div&gt;- title: String&lt;/div&gt;&lt;div&gt;- genre: String&lt;/div&gt;&lt;div&gt;- chapters: Chapter[]&lt;br&gt;&lt;/div&gt;&lt;div&gt;- lastChapterPage: int&lt;br&gt;&lt;/div&gt;" style="text;strokeColor=none;fillColor=none;align=left;verticalAlign=top;spacingLeft=4;spacingRight=4;overflow=hidden;rotatable=0;points=[[0,0.5],[1,0.5]];portConstraint=eastwest;whiteSpace=wrap;html=1;" parent="j6KKOtEj2I2lnPUpxFF_-1" vertex="1">
          <mxGeometry y="26" width="160" height="64" as="geometry" />
        </mxCell>
        <mxCell id="j6KKOtEj2I2lnPUpxFF_-3" value="" style="line;strokeWidth=1;fillColor=none;align=left;verticalAlign=middle;spacingTop=-1;spacingLeft=3;spacingRight=3;rotatable=0;labelPosition=right;points=[];portConstraint=eastwest;strokeColor=inherit;" parent="j6KKOtEj2I2lnPUpxFF_-1" vertex="1">
          <mxGeometry y="90" width="160" height="8" as="geometry" />
        </mxCell>
        <mxCell id="j6KKOtEj2I2lnPUpxFF_-4" value="&lt;div&gt;+ Book()&lt;/div&gt;&lt;div&gt;+ toString()&lt;br&gt;&lt;/div&gt;&lt;div&gt;+ setAuthor(Writer)&lt;/div&gt;&lt;div&gt;+ displayChapters()&lt;br&gt;&lt;/div&gt;" style="text;strokeColor=none;fillColor=none;align=left;verticalAlign=top;spacingLeft=4;spacingRight=4;overflow=hidden;rotatable=0;points=[[0,0.5],[1,0.5]];portConstraint=eastwest;whiteSpace=wrap;html=1;" parent="j6KKOtEj2I2lnPUpxFF_-1" vertex="1">
          <mxGeometry y="98" width="160" height="72" as="geometry" />
        </mxCell>
        <mxCell id="j6KKOtEj2I2lnPUpxFF_-5" value="Writer" style="swimlane;fontStyle=1;align=center;verticalAlign=top;childLayout=stackLayout;horizontal=1;startSize=26;horizontalStack=0;resizeParent=1;resizeParentMax=0;resizeLast=0;collapsible=1;marginBottom=0;whiteSpace=wrap;html=1;" parent="1" vertex="1">
          <mxGeometry x="490" y="200" width="160" height="170" as="geometry" />
        </mxCell>
        <mxCell id="j6KKOtEj2I2lnPUpxFF_-6" value="&lt;div&gt;- surname: String&lt;/div&gt;&lt;div&gt;- firstname: String&lt;br&gt;&lt;/div&gt;&lt;div&gt;- books: Book[]&lt;br&gt;&lt;/div&gt;" style="text;strokeColor=none;fillColor=none;align=left;verticalAlign=top;spacingLeft=4;spacingRight=4;overflow=hidden;rotatable=0;points=[[0,0.5],[1,0.5]];portConstraint=eastwest;whiteSpace=wrap;html=1;" parent="j6KKOtEj2I2lnPUpxFF_-5" vertex="1">
          <mxGeometry y="26" width="160" height="64" as="geometry" />
        </mxCell>
        <mxCell id="j6KKOtEj2I2lnPUpxFF_-7" value="" style="line;strokeWidth=1;fillColor=none;align=left;verticalAlign=middle;spacingTop=-1;spacingLeft=3;spacingRight=3;rotatable=0;labelPosition=right;points=[];portConstraint=eastwest;strokeColor=inherit;" parent="j6KKOtEj2I2lnPUpxFF_-5" vertex="1">
          <mxGeometry y="90" width="160" height="8" as="geometry" />
        </mxCell>
        <mxCell id="j6KKOtEj2I2lnPUpxFF_-8" value="&lt;div&gt;+ Writer()&lt;/div&gt;&lt;div&gt;+ addBook(Book)&lt;/div&gt;&lt;div&gt;+ displayWriter()&lt;/div&gt;&lt;div&gt;+ toString()&lt;br&gt;&lt;/div&gt;" style="text;strokeColor=none;fillColor=none;align=left;verticalAlign=top;spacingLeft=4;spacingRight=4;overflow=hidden;rotatable=0;points=[[0,0.5],[1,0.5]];portConstraint=eastwest;whiteSpace=wrap;html=1;" parent="j6KKOtEj2I2lnPUpxFF_-5" vertex="1">
          <mxGeometry y="98" width="160" height="72" as="geometry" />
        </mxCell>
        <mxCell id="kiZkbElf9U6i5egUpAs7-3" value="0..1" style="endArrow=open;html=1;endSize=12;startArrow=diamondThin;startSize=14;startFill=0;edgeStyle=orthogonalEdgeStyle;align=left;verticalAlign=bottom;rounded=0;entryX=1;entryY=0.5;entryDx=0;entryDy=0;" edge="1" parent="1" source="j6KKOtEj2I2lnPUpxFF_-6" target="j6KKOtEj2I2lnPUpxFF_-2">
          <mxGeometry x="-0.7073" y="-8" relative="1" as="geometry">
            <mxPoint x="500" y="260" as="sourcePoint" />
            <mxPoint x="490" y="280" as="targetPoint" />
            <mxPoint as="offset" />
          </mxGeometry>
        </mxCell>
        <mxCell id="kiZkbElf9U6i5egUpAs7-6" value="*" style="edgeLabel;html=1;align=center;verticalAlign=middle;resizable=0;points=[];" vertex="1" connectable="0" parent="kiZkbElf9U6i5egUpAs7-3">
          <mxGeometry x="0.7561" relative="1" as="geometry">
            <mxPoint y="-13" as="offset" />
          </mxGeometry>
        </mxCell>
        <mxCell id="kiZkbElf9U6i5egUpAs7-7" value="Bookcase" style="swimlane;fontStyle=1;align=center;verticalAlign=top;childLayout=stackLayout;horizontal=1;startSize=26;horizontalStack=0;resizeParent=1;resizeParentMax=0;resizeLast=0;collapsible=1;marginBottom=0;whiteSpace=wrap;html=1;" vertex="1" parent="1">
          <mxGeometry x="20" y="420" width="160" height="120" as="geometry" />
        </mxCell>
        <mxCell id="kiZkbElf9U6i5egUpAs7-8" value="- booklist: Book[]" style="text;strokeColor=none;fillColor=none;align=left;verticalAlign=top;spacingLeft=4;spacingRight=4;overflow=hidden;rotatable=0;points=[[0,0.5],[1,0.5]];portConstraint=eastwest;whiteSpace=wrap;html=1;" vertex="1" parent="kiZkbElf9U6i5egUpAs7-7">
          <mxGeometry y="26" width="160" height="26" as="geometry" />
        </mxCell>
        <mxCell id="kiZkbElf9U6i5egUpAs7-9" value="" style="line;strokeWidth=1;fillColor=none;align=left;verticalAlign=middle;spacingTop=-1;spacingLeft=3;spacingRight=3;rotatable=0;labelPosition=right;points=[];portConstraint=eastwest;strokeColor=inherit;" vertex="1" parent="kiZkbElf9U6i5egUpAs7-7">
          <mxGeometry y="52" width="160" height="8" as="geometry" />
        </mxCell>
        <mxCell id="kiZkbElf9U6i5egUpAs7-10" value="&lt;div&gt;+ addBook(Book)&lt;/div&gt;&lt;div&gt;+ remBook(Book)&lt;br&gt;&lt;/div&gt;&lt;div&gt;+ displayBooks()&lt;br&gt;&lt;/div&gt;" style="text;strokeColor=none;fillColor=none;align=left;verticalAlign=top;spacingLeft=4;spacingRight=4;overflow=hidden;rotatable=0;points=[[0,0.5],[1,0.5]];portConstraint=eastwest;whiteSpace=wrap;html=1;" vertex="1" parent="kiZkbElf9U6i5egUpAs7-7">
          <mxGeometry y="60" width="160" height="60" as="geometry" />
        </mxCell>
        <mxCell id="kiZkbElf9U6i5egUpAs7-11" value="0..1" style="endArrow=open;html=1;endSize=12;startArrow=diamondThin;startSize=14;startFill=0;edgeStyle=orthogonalEdgeStyle;align=left;verticalAlign=bottom;rounded=0;exitX=0.5;exitY=0;exitDx=0;exitDy=0;" edge="1" parent="1" source="kiZkbElf9U6i5egUpAs7-7" target="j6KKOtEj2I2lnPUpxFF_-4">
          <mxGeometry x="-0.8413" y="30" relative="1" as="geometry">
            <mxPoint x="330" y="430" as="sourcePoint" />
            <mxPoint x="200" y="370" as="targetPoint" />
            <mxPoint as="offset" />
          </mxGeometry>
        </mxCell>
        <mxCell id="kiZkbElf9U6i5egUpAs7-13" value="*" style="edgeLabel;html=1;align=center;verticalAlign=middle;resizable=0;points=[];" vertex="1" connectable="0" parent="kiZkbElf9U6i5egUpAs7-11">
          <mxGeometry x="0.1587" y="3" relative="1" as="geometry">
            <mxPoint x="13" y="-37" as="offset" />
          </mxGeometry>
        </mxCell>
        <mxCell id="kiZkbElf9U6i5egUpAs7-22" value="Chapter" style="swimlane;fontStyle=1;align=center;verticalAlign=top;childLayout=stackLayout;horizontal=1;startSize=26;horizontalStack=0;resizeParent=1;resizeParentMax=0;resizeLast=0;collapsible=1;marginBottom=0;whiteSpace=wrap;html=1;" vertex="1" parent="1">
          <mxGeometry x="320" y="420" width="160" height="130" as="geometry" />
        </mxCell>
        <mxCell id="kiZkbElf9U6i5egUpAs7-23" value="&lt;div&gt;- title: String&lt;/div&gt;&lt;div&gt;- pages: int&lt;br&gt;&lt;/div&gt;&lt;div&gt;- startPage: int&lt;/div&gt;" style="text;strokeColor=none;fillColor=none;align=left;verticalAlign=top;spacingLeft=4;spacingRight=4;overflow=hidden;rotatable=0;points=[[0,0.5],[1,0.5]];portConstraint=eastwest;whiteSpace=wrap;html=1;" vertex="1" parent="kiZkbElf9U6i5egUpAs7-22">
          <mxGeometry y="26" width="160" height="54" as="geometry" />
        </mxCell>
        <mxCell id="kiZkbElf9U6i5egUpAs7-24" value="" style="line;strokeWidth=1;fillColor=none;align=left;verticalAlign=middle;spacingTop=-1;spacingLeft=3;spacingRight=3;rotatable=0;labelPosition=right;points=[];portConstraint=eastwest;strokeColor=inherit;" vertex="1" parent="kiZkbElf9U6i5egUpAs7-22">
          <mxGeometry y="80" width="160" height="8" as="geometry" />
        </mxCell>
        <mxCell id="kiZkbElf9U6i5egUpAs7-25" value="&lt;div&gt;+ Chapter()&lt;br&gt;&lt;/div&gt;&lt;div&gt;+ toString()&lt;/div&gt;" style="text;strokeColor=none;fillColor=none;align=left;verticalAlign=top;spacingLeft=4;spacingRight=4;overflow=hidden;rotatable=0;points=[[0,0.5],[1,0.5]];portConstraint=eastwest;whiteSpace=wrap;html=1;" vertex="1" parent="kiZkbElf9U6i5egUpAs7-22">
          <mxGeometry y="88" width="160" height="42" as="geometry" />
        </mxCell>
        <mxCell id="kiZkbElf9U6i5egUpAs7-26" value="1" style="endArrow=open;html=1;endSize=12;startArrow=diamondThin;startSize=14;startFill=1;edgeStyle=orthogonalEdgeStyle;align=left;verticalAlign=bottom;rounded=0;entryX=0.656;entryY=0.033;entryDx=0;entryDy=0;entryPerimeter=0;" edge="1" parent="1" source="j6KKOtEj2I2lnPUpxFF_-4" target="kiZkbElf9U6i5egUpAs7-22">
          <mxGeometry x="-1" y="3" relative="1" as="geometry">
            <mxPoint x="330" y="430" as="sourcePoint" />
            <mxPoint x="490" y="430" as="targetPoint" />
          </mxGeometry>
        </mxCell>
        <mxCell id="kiZkbElf9U6i5egUpAs7-29" value="*" style="edgeLabel;html=1;align=center;verticalAlign=middle;resizable=0;points=[];" vertex="1" connectable="0" parent="kiZkbElf9U6i5egUpAs7-26">
          <mxGeometry x="0.6981" y="-1" relative="1" as="geometry">
            <mxPoint x="6" as="offset" />
          </mxGeometry>
        </mxCell>
      </root>
    </mxGraphModel>
  </diagram>
</mxfile>
